<svg
              className="mb-0"
              width="80"
              height="66"
              viewBox="0 0 80 66"
              fill="none"
              xmlns="http://www.w3.org/2000/svg"
            >
              <rect
                x="20"
                y="13"
                width="40"
                height="40"
                rx="15"
                fill="#FF7977"
              />
              <path
                fill-rule="evenodd"
                clip-rule="evenodd"
                d="M51.9992 40.2178C51.9907 39.4657 51.8276 38.6978 51.5315 37.9311C51.3849 37.5502 51.2554 37.2503 50.9622 36.596L50.945 36.5578L50.8637 36.3761C49.0642 32.3815 47.1715 28.4213 45.1863 24.4956C45.1361 24.3969 45.096 24.318 45.0076 24.1432L45.0039 24.136C44.6792 23.4943 44.5295 23.2043 44.3347 22.8477C43.978 22.1994 43.6145 21.6927 43.1754 21.2781C42.4027 20.5279 41.3569 20.0699 40.2704 20.001L39.7975 20C38.6563 20.0567 37.5757 20.5329 36.781 21.3219C36.3648 21.7233 36.0158 22.2151 35.6674 22.8475C35.4719 23.2043 35.3111 23.5154 35.0044 24.122L34.9682 24.1936L34.8282 24.4701C33.5072 27.0809 32.2178 29.7278 30.9593 32.4114C30.0389 34.3824 29.3888 35.8017 28.7634 37.2197C28.3773 38.099 28.1587 38.7567 28.0631 39.4551C27.8607 40.8025 28.1498 42.2239 28.8637 43.3924C29.4784 44.4065 30.4004 45.2203 31.4735 45.6912C32.3096 46.0594 33.2312 46.2258 34.1385 46.1712C35.285 46.1093 36.4364 45.7067 37.5032 45.0334C38.3555 44.5007 39.1327 43.8307 40.0014 42.9204C40.788 43.747 41.5031 44.3758 42.2773 44.8903C43.3323 45.5972 44.4637 46.0406 45.6051 46.1504C46.9321 46.2916 48.3023 45.9534 49.4111 45.2044C50.3873 44.5497 51.1582 43.5845 51.5914 42.4762C51.8725 41.7596 52.0122 40.9871 51.9992 40.2178ZM49.2981 41.3062C49.0689 42.1117 48.5158 42.8178 47.7978 43.2222C47.1651 43.5826 46.401 43.7127 45.6715 43.5886C44.8027 43.4508 43.9484 43.0019 43.0595 42.2725C42.6236 41.9159 42.2029 41.5093 41.7243 40.9919C42.5823 39.8589 43.22 38.8685 43.7234 37.8379C44.3448 36.5616 44.6952 35.3698 44.7322 34.1863C44.7569 33.2974 44.5823 32.4409 44.2035 31.7056C43.692 30.6924 42.7729 29.8948 41.6908 29.507C40.7111 29.1506 39.619 29.1164 38.6117 29.4089C37.643 29.688 36.7772 30.28 36.1855 31.0822C35.6701 31.7742 35.3609 32.6342 35.29 33.5317C35.1955 34.6528 35.428 35.8192 35.928 37.054C36.4732 38.3773 37.2469 39.6465 38.2806 40.9888C37.9283 41.3777 37.5466 41.7513 37.1377 42.1088C36.2514 42.8725 35.4112 43.3578 34.5477 43.548C33.7884 43.7216 32.9888 43.6291 32.3237 43.2864C31.5311 42.8841 30.9201 42.1234 30.6909 41.2536C30.5184 40.6249 30.5476 39.928 30.7653 39.2745C30.8933 38.892 31.0225 38.5836 31.3267 37.9051L31.3522 37.8481C31.4077 37.7242 31.4436 37.6438 31.4804 37.5606C33.2418 33.6492 35.1067 29.7456 37.0718 25.8537L37.2219 25.5566L37.2294 25.5416C37.5804 24.8459 37.7434 24.5293 37.9509 24.1483C38.2292 23.6441 38.4744 23.3165 38.7701 23.0877C39.1245 22.8054 39.5692 22.6541 40.0075 22.6642C40.4762 22.6589 40.9345 22.8289 41.289 23.1323C41.6054 23.3999 41.8474 23.7528 42.171 24.3679C42.6361 25.2576 43.0409 26.0604 43.7823 27.552L43.9148 27.8184L43.9294 27.8479C45.591 31.1982 47.179 34.5617 48.6924 37.9379C48.713 37.985 48.7289 38.0214 48.7675 38.109L48.7959 38.1732C49.0803 38.8181 49.197 39.111 49.2981 39.4742C49.4644 40.0776 49.4657 40.7214 49.2984 41.3052L49.2981 41.3062ZM38.2806 40.9888C38.3763 40.8831 38.4698 40.7763 38.5612 40.6684L38.5511 41.3342C38.459 41.2185 38.3689 41.1033 38.2806 40.9888ZM41.7243 40.9919C41.6371 41.1072 41.5475 41.2239 41.4556 41.3423L41.4322 40.6706C41.5322 40.7824 41.6294 40.8893 41.7243 40.9919ZM40.0001 38.8819C40.1525 39.095 40.2719 39.2503 40.4072 39.4126L40.0072 39.7488L39.5926 39.4308C39.7349 39.2439 39.8707 39.0612 40.0001 38.8819ZM40.0001 38.8819C40.8064 37.7653 41.3676 36.784 41.7479 35.7674C42.0352 34.9859 42.1547 34.2905 42.083 33.6526C42.0261 33.1536 41.8007 32.6969 41.4575 32.3992C40.7394 31.7673 39.5757 31.6983 38.7599 32.2345C38.4336 32.4463 38.1774 32.7674 38.0426 33.1392C37.9004 33.5136 37.8671 33.9621 37.9274 34.4832C37.9982 35.0461 38.1756 35.6278 38.4577 36.2721C38.7539 36.9403 39.1327 37.6089 39.5999 38.3069L39.6262 38.3451L39.6711 38.4105C39.8008 38.5992 39.9066 38.7514 40.0001 38.8819Z"
                fill="white"
              />
            </svg>