<svg
              className="mb-0"
              width="80"
              height="66"
              viewBox="0 0 80 66"
              fill="none"
              xmlns="http://www.w3.org/2000/svg"
            >
              <rect
                x="20"
                y="13"
                width="40"
                height="40"
                rx="15"
                fill="#F7931A"
              />
              <path
                fill-rule="evenodd"
                clip-rule="evenodd"
                d="M50.5482 30.0303C51.0186 26.8859 48.6245 25.1956 45.3509 24.0679L46.4128 19.8085L43.8201 19.1623L42.7862 23.3095C42.1046 23.1397 41.4046 22.9794 40.7089 22.8207L41.7502 18.6462L39.1589 18L38.0962 22.258C37.5321 22.1295 36.9782 22.0025 36.4406 21.8688L36.4436 21.8555L32.8679 20.9627L32.1782 23.7319C32.1782 23.7319 34.1019 24.1728 34.0613 24.2001C35.1114 24.4623 35.3012 25.1572 35.2694 25.7081L34.0598 30.5605C34.1322 30.579 34.226 30.6055 34.3294 30.6469L34.2415 30.625L34.2414 30.6249C34.1813 30.6099 34.119 30.5942 34.0554 30.579L32.3599 37.3765C32.2314 37.6955 31.9057 38.174 31.1717 37.9924C31.1975 38.03 29.2871 37.522 29.2871 37.522L28 40.4898L31.374 41.331C31.7508 41.4254 32.1231 41.5225 32.4915 41.6185L32.4921 41.6187C32.7372 41.6826 32.9805 41.7461 33.2224 41.808L32.1494 46.1162L34.7392 46.7623L35.8018 42.4999C36.5093 42.6919 37.1961 42.8692 37.8681 43.0361L36.8091 47.2785L39.4018 47.9247L40.4748 43.6246C44.896 44.4613 48.2206 44.1238 49.6199 40.125C50.7476 36.9054 49.5638 35.0481 47.2377 33.837C48.9317 33.4464 50.2078 32.3321 50.5482 30.0303ZM44.6242 38.3372C43.8892 41.2911 39.2655 40.0699 37.1499 39.5112L37.1496 39.5111C36.9594 39.4608 36.7894 39.4159 36.6444 39.3799L38.0682 33.6724C38.2448 33.7165 38.4607 33.7649 38.7052 33.8197L38.7052 33.8198C40.8933 34.3107 45.3775 35.3169 44.6242 38.3372ZM39.1448 31.171C40.9087 31.6418 44.756 32.6685 45.4262 29.9838C46.1106 27.2376 42.3712 26.4098 40.545 26.0056C40.3396 25.9601 40.1583 25.92 40.0103 25.8831L38.7195 31.0597C38.8414 31.0901 38.9845 31.1283 39.1448 31.171Z"
                fill="white"
              />
            </svg>