 <svg
              className="mb-0"
              width="80"
              height="66"
              viewBox="0 0 80 66"
              fill="none"
              xmlns="http://www.w3.org/2000/svg"
            >
              <rect
                x="20"
                y="13"
                width="40"
                height="40"
                rx="15"
                fill="#1F8DED"
              />
              <path
                fill-rule="evenodd"
                clip-rule="evenodd"
                d="M38.9091 22.0909C38.9091 21.4885 39.3976 21 40 21C40.6025 21 41.0909 21.4885 41.0909 22.0909V37.9091C41.0909 38.5115 40.6025 39 40 39C39.3976 39 38.9091 38.5115 38.9091 37.9091V22.0909ZM34.5455 21.552C33.943 21.552 33.4546 22.0405 33.4546 22.6429V37.2169C33.4546 37.8194 33.943 38.3078 34.5455 38.3078C35.1479 38.3078 35.6364 37.8194 35.6364 37.2169V22.6429C35.6364 22.0405 35.1479 21.552 34.5455 21.552ZM50.9091 35.7273C51.5116 35.7273 52 35.2388 52 34.6364V24.8247C52 24.2223 51.5116 23.7338 50.9091 23.7338C50.3067 23.7338 49.8182 24.2223 49.8182 24.8247V34.6364C49.8182 35.2388 50.3067 35.7273 50.9091 35.7273ZM40 45C47.4095 45 51.4508 41.6089 51.6193 41.4646C52.0767 41.0725 52.1296 40.3838 51.7374 39.9262C51.3455 39.4685 50.6555 39.4159 50.1989 39.8081C50.164 39.8381 46.6109 42.8182 40 42.8182C33.4709 42.8182 29.8625 39.8594 29.7984 39.8059C29.3408 39.4156 28.6538 39.4696 28.2627 39.9262C27.8705 40.3838 27.9237 41.0725 28.3808 41.4646C28.5493 41.6089 32.5906 45 40 45ZM28 24.8247C28 24.2223 28.4885 23.7338 29.0909 23.7338C29.6934 23.7338 30.1818 24.2223 30.1818 24.8247V34.6364C30.1818 35.2388 29.6934 35.7273 29.0909 35.7273C28.4885 35.7273 28 35.2388 28 34.6364V24.8247ZM45.4546 21.552C44.8521 21.552 44.3637 22.0405 44.3637 22.6429V37.2169C44.3637 37.8194 44.8521 38.3078 45.4546 38.3078C46.057 38.3078 46.5455 37.8194 46.5455 37.2169V22.6429C46.5455 22.0405 46.057 21.552 45.4546 21.552Z"
                fill="white"
              />
            </svg>