<svg
                width="56"
                height="56"
                viewBox="0 0 56 56"
                fill="none"
                xmlns="http://www.w3.org/2000/svg"
              >
                <g filter="url(#filter0_dd_5_291)">
                  <rect
                    x="8"
                    y="4"
                    width="40"
                    height="40"
                    rx="15"
                    fill="white"
                  />
                  <path
                    fill-rule="evenodd"
                    clip-rule="evenodd"
                    d="M31.5 18.75C30.5335 18.75 29.75 19.5335 29.75 20.5V27.5C29.75 28.4665 30.5335 29.25 31.5 29.25C32.4665 29.25 33.25 28.4665 33.25 27.5C33.25 26.5335 32.4665 25.75 31.5 25.75H24.5C23.5335 25.75 22.75 26.5335 22.75 27.5C22.75 28.4665 23.5335 29.25 24.5 29.25C25.4665 29.25 26.25 28.4665 26.25 27.5V20.5C26.25 19.5335 25.4665 18.75 24.5 18.75C23.5335 18.75 22.75 19.5335 22.75 20.5C22.75 21.4665 23.5335 22.25 24.5 22.25H31.5C32.4665 22.25 33.25 21.4665 33.25 20.5C33.25 19.5335 32.4665 18.75 31.5 18.75Z"
                    stroke="#422F8A"
                    stroke-opacity="0.87"
                    stroke-width="1.16667"
                    stroke-linecap="round"
                    stroke-linejoin="round"
                  />
                  <rect
                    x="8.5"
                    y="4.5"
                    width="39"
                    height="39"
                    rx="14.5"
                    stroke="#F2F2F7"
                  />
                </g>
                <defs>
                  <filter
                    id="filter0_dd_5_291"
                    x="0"
                    y="0"
                    width="56"
                    height="56"
                    filterUnits="userSpaceOnUse"
                    color-interpolation-filters="sRGB"
                  >
                    <feFlood flood-opacity="0" result="BackgroundImageFix" />
                    <feColorMatrix
                      in="SourceAlpha"
                      type="matrix"
                      values="0 0 0 0 0 0 0 0 0 0 0 0 0 0 0 0 0 0 127 0"
                      result="hardAlpha"
                    />
                    <feOffset dy="4" />
                    <feGaussianBlur stdDeviation="4" />
                    <feColorMatrix
                      type="matrix"
                      values="0 0 0 0 0.196078 0 0 0 0 0.196078 0 0 0 0 0.278431 0 0 0 0.01 0"
                    />
                    <feBlend
                      mode="normal"
                      in2="BackgroundImageFix"
                      result="effect1_dropShadow_5_291"
                    />
                    <feColorMatrix
                      in="SourceAlpha"
                      type="matrix"
                      values="0 0 0 0 0 0 0 0 0 0 0 0 0 0 0 0 0 0 127 0"
                      result="hardAlpha"
                    />
                    <feOffset dy="4" />
                    <feGaussianBlur stdDeviation="2" />
                    <feColorMatrix
                      type="matrix"
                      values="0 0 0 0 0 0 0 0 0 0 0 0 0 0 0 0 0 0 0.08 0"
                    />
                    <feBlend
                      mode="normal"
                      in2="effect1_dropShadow_5_291"
                      result="effect2_dropShadow_5_291"
                    />
                    <feBlend
                      mode="normal"
                      in="SourceGraphic"
                      in2="effect2_dropShadow_5_291"
                      result="shape"
                    />
                  </filter>
                </defs>
              </svg>